<?xml version="1.0" standalone="no"?>
<!DOCTYPE svg PUBLIC "-//W3C//DTD SVG 20010904//EN"
 "http://www.w3.org/TR/2001/REC-SVG-20010904/DTD/svg10.dtd">
<svg version="1.0" xmlns="http://www.w3.org/2000/svg"
 width="300.000000pt" height="300.000000pt" viewBox="0 0 300.000000 300.000000"
 preserveAspectRatio="xMidYMid meet">
<metadata>
Created by potrace 1.10, written by Peter Selinger 2001-2011
</metadata>
<g transform="translate(0.000000,300.000000) scale(0.100000,-0.100000)"
fill="#000000" stroke="none">
<path d="M662 2092 c-23 -2 -40 -7 -37 -13 4 -5 -7 -9 -23 -9 -39 0 -96 -45
-122 -98 -18 -35 -21 -56 -18 -104 2 -33 9 -63 15 -66 5 -4 15 -22 21 -39 l11
-33 -132 -2 c-275 -3 -267 2 -267 -147 0 -65 4 -101 11 -103 8 -3 8 -10 -2
-26 -11 -18 -11 -26 -1 -42 6 -11 12 -27 12 -37 0 -9 9 -42 19 -72 11 -31 31
-96 46 -146 79 -266 84 -278 131 -300 27 -13 52 -15 102 -11 89 6 92 7 92 22
0 6 9 14 20 17 12 3 20 14 20 25 0 36 19 34 37 -3 10 -21 27 -38 40 -41 13 -4
23 -11 23 -16 0 -6 33 -8 87 -5 83 4 88 6 116 37 32 36 36 35 67 -20 7 -11 30
-15 99 -16 50 0 91 3 91 8 0 4 7 8 16 8 18 0 37 17 47 43 3 9 12 17 19 18 103
8 138 2 138 -24 0 -14 29 -40 51 -45 8 -2 46 -6 86 -9 57 -5 78 -2 97 11 29
18 53 21 58 5 2 -6 39 -13 83 -16 118 -7 163 12 191 85 1 1 11 -1 23 -6 12 -4
21 -12 19 -17 -2 -4 11 -16 27 -25 71 -38 103 -42 345 -37 129 2 242 6 250 9
46 13 60 20 60 29 0 15 47 10 54 -6 7 -19 46 -19 71 -1 13 9 16 18 10 32 -8
18 -9 18 -12 -2 -3 -14 -14 -24 -31 -27 -32 -6 -29 -7 -34 18 -2 16 2 20 25
18 31 -2 33 2 12 23 -8 9 -15 11 -15 5 0 -6 -5 -11 -10 -11 -6 0 -5 11 4 28
31 60 24 162 -15 215 -29 40 -16 48 80 53 112 5 121 15 121 134 0 53 -4 90
-10 90 -5 0 -10 7 -10 15 0 8 5 15 10 15 6 0 10 40 10 100 0 133 -7 140 -128
144 -109 3 -117 7 -95 49 34 66 15 181 -40 238 -38 40 -87 68 -104 62 -7 -3
-13 0 -13 5 0 8 -236 17 -403 15 -17 0 -37 -11 -53 -28 l-25 -27 3 -178 c2
-98 0 -174 -3 -168 -3 5 -10 9 -14 8 -11 -2 -105 289 -105 324 0 9 -4 14 -10
11 -5 -3 -10 0 -10 8 0 8 -8 21 -18 30 -16 14 -43 17 -165 17 -102 0 -147 -3
-147 -11 0 -6 -8 -9 -19 -6 -11 2 -25 -3 -35 -15 -9 -10 -21 -16 -27 -12 -8 4
-7 9 2 15 10 6 6 9 -13 9 -16 0 -28 4 -28 10 0 9 -674 19 -778 12z m798 -127
l0 -95 -125 0 -125 0 0 -192 0 -193 -100 0 -100 0 0 193 0 192 -137 0 -137 0
51 -52 c65 -68 73 -84 73 -156 0 -68 -23 -112 -79 -149 -33 -23 -40 -23 -322
-24 -159 -1 -295 -2 -301 -3 -10 -1 -14 27 -16 102 l-3 102 231 0 c126 0 230
2 230 5 0 2 -18 23 -40 47 -74 80 -87 162 -38 233 48 71 37 69 498 75 228 3
421 7 428 8 9 1 12 -22 12 -93z m484 -187 c47 -152 86 -280 86 -285 0 -4 -46
-7 -102 -6 l-103 1 -14 41 -13 42 -96 -3 -95 -3 -11 -39 -11 -40 -105 2 c-94
1 -105 3 -102 19 2 9 29 98 59 198 30 99 66 218 80 265 l24 85 159 0 158 0 86
-277z m607 251 c54 -27 91 -80 97 -138 6 -66 -12 -114 -59 -154 -21 -19 -39
-37 -39 -40 0 -4 70 -7 155 -7 l156 0 -3 -101 -3 -101 -189 2 c-131 0 -198 5
-220 14 -17 7 -57 41 -89 75 -32 33 -61 61 -63 61 -3 0 -4 -35 -3 -77 l2 -77
-112 1 -111 1 -1 279 c0 153 1 280 1 283 0 3 100 4 222 2 195 -3 226 -6 259
-23z m-1586 -209 c3 -5 7 -82 8 -169 l2 -160 -73 -3 c-56 -2 -72 0 -72 11 0 8
7 19 16 26 23 16 54 102 54 148 0 21 -11 60 -25 87 -14 27 -25 54 -25 60 0 13
107 13 115 0z m457 -29 c-1 -19 -18 -78 -36 -130 -18 -53 -32 -104 -30 -113 1
-10 -2 -18 -7 -18 -5 0 -9 -11 -9 -25 0 -24 -2 -25 -42 -19 -24 4 -45 8 -46
10 -2 1 -5 72 -5 156 -2 125 1 155 13 165 10 8 42 12 90 10 l75 -2 -3 -34z
m350 -275 c14 -21 8 -23 -63 -28 -59 -5 -75 -10 -94 -30 -22 -24 -23 -31 -23
-217 0 -106 -2 -194 -5 -197 -6 -7 -66 162 -73 207 -4 23 -11 36 -17 32 -5 -3
-7 -2 -4 4 4 6 -2 34 -13 64 -33 90 -32 91 70 103 24 2 46 10 48 15 2 6 7 9
12 6 5 -3 12 5 16 17 4 13 14 28 22 34 18 13 114 6 124 -10z m622 -23 c15 -21
16 -27 5 -34 -35 -21 -79 -64 -79 -76 0 -7 -4 -13 -10 -13 -5 0 -10 -9 -10
-19 0 -11 -5 -23 -11 -27 -15 -9 -3 -89 23 -146 12 -27 19 -50 16 -53 -9 -10
-82 -11 -100 -3 -16 8 -16 11 2 51 37 81 21 175 -42 243 -23 26 -18 30 40 33
43 2 82 18 82 34 0 5 8 19 17 31 20 26 35 21 67 -21z m-2002 -103 c10 -32 18
-66 18 -75 0 -27 17 -8 24 27 3 17 11 49 17 70 l10 38 119 0 119 0 16 -57 c28
-103 29 -103 51 -22 l20 74 113 3 c106 2 113 1 106 -15 -9 -22 -116 -367 -148
-476 l-22 -78 -99 3 -99 3 -25 90 c-13 50 -27 97 -30 105 -2 8 -20 -33 -39
-92 l-34 -108 -99 0 c-77 0 -100 3 -100 14 0 11 -127 433 -160 529 l-9 27 117
0 117 0 17 -60z m1103 -205 c45 -143 85 -270 89 -283 l8 -23 -109 3 -108 3 -9
38 -10 37 -96 0 -97 0 -12 -40 -12 -40 -104 0 c-58 0 -105 3 -105 8 0 6 154
519 165 550 3 10 41 12 162 10 l158 -3 80 -260z m582 254 c92 -24 152 -115
137 -211 -5 -34 -17 -53 -55 -90 -26 -26 -45 -49 -41 -51 12 -7 312 -6 312 1
0 4 -17 23 -36 42 -92 91 -98 203 -15 273 48 40 90 47 294 47 l187 0 0 -95 0
-95 -147 0 -147 0 46 -47 c25 -27 53 -62 62 -80 39 -79 4 -189 -74 -230 -42
-22 -51 -23 -297 -23 -295 0 -291 -1 -386 99 -32 34 -59 61 -60 61 -1 0 -1
-36 1 -80 l4 -80 -116 0 -116 0 0 285 0 285 201 0 c117 0 219 -5 246 -11z
m-1076 -164 c-20 -57 -24 -52 -9 13 7 28 15 46 19 41 3 -6 -1 -30 -10 -54z"/>
<path d="M1685 1808 c-9 -34 -19 -67 -21 -72 -3 -7 13 -11 41 -11 25 0 45 2
45 3 0 8 -42 142 -45 142 -1 0 -10 -28 -20 -62z"/>
<path d="M2290 1855 l0 -35 69 0 c76 0 104 16 84 48 -7 13 -28 18 -82 20 l-71
3 0 -36z"/>
<path d="M1257 1260 c-3 -8 -14 -43 -24 -77 l-20 -63 48 0 49 0 -11 28 c-6 15
-16 50 -24 77 -7 28 -15 43 -18 35z"/>
<path d="M1860 1253 l0 -38 72 5 c62 4 73 8 76 24 6 30 -26 46 -90 46 l-58 0
0 -37z"/>
</g>
</svg>
